# AST/ASF file generated using VICON BodyLanguage
# -----------------------------------------------
:version 1.10
:name VICON
:units
  mass 1.0
  length 0.1
  angle deg
:documentation
   .ast/.asf automatically generated from VICON data using
   VICON BodyBuilder and BodyLanguage model FULLBODY5.MOD
:root
   order TX TY TZ RZ RY RX
   axis XYZ
   position 0 0 0  
   orientation 0 -0 0 
:bonedata
  begin
     id 1 
     name lhipjoint
     direction 0.961525 -0.229516 0.150972 
     length 0.502153 
     axis 0 -0 0  XYZ
  end
  begin
     id 2 
     name lfemur
     direction 0.173648 -0.984808 0  
     length 1.83052  
     axis 0 -0 10  XYZ
    dof rx ry rz
    limits (-180.0 180.0)
           (-180.0 180.0)
           (-180.0 180.0)
  end
  begin
     id 3 
     name ltibia
     direction 0.173629 -0.984811 0   
     length 1.50296   
     axis 0 -0 10   XYZ
    dof rx ry rz
    limits (-180.0 180.0)
           (-180.0 180.0)
           (-180.0 180.0)
  end
  begin
     id 4 
     name lfoot
     direction 7.59329e-012 -0.227408 0.9738   
     length 0.574743   
     axis -90 -1.73656e-015 10   XYZ
    dof rx ry rz
    limits (-180.0 180.0)
           (-180.0 180.0)
           (-180.0 180.0)
  end
  begin
     id 5 
     name ltoes
     direction 7.79885e-012 -4.41741e-011 1   
     length 0.28489   
     axis -90 -1.73656e-015 10   XYZ
    dof rx ry rz
    limits (-180.0 180.0)
           (-180.0 180.0)
           (-180.0 180.0)
  end
  begin
     id 6 
     name rhipjoint
     direction -0.970498 -0.201437 0.132502   
     length 0.572149  
     axis 0 -0 0  XYZ 
  end
  begin
     id 7 
     name rfemur
     direction -0.173648 -0.984808 0   
     length 1.71866   
     axis 0 -0 -10   XYZ
    dof rx ry rz
    limits (-180.0 180.0)
           (-180.0 180.0)
           (-180.0 180.0)
  end
  begin
     id 8 
     name rtibia
     direction -0.173624 -0.984812 0   
     length 1.42623   
     axis 0 -0 -10   XYZ
    dof rx ry rz
    limits (-180.0 180.0)
           (-180.0 180.0)
           (-180.0 180.0)
 end
 begin
     id 9 
     name rfoot
     direction -7.12931e-012 -0.404275 0.914637   
     length 0.524692  
     axis -90 1.73656e-015 -10   XYZ
    dof rx ry rz
    limits (-180.0 180.0)
           (-180.0 180.0)
           (-180.0 180.0)
  end
  begin
     id 10 
     name rtoes
     direction -7.79289e-012 -4.41454e-011 1   
     length 0.254983   
     axis -90 1.73656e-015 -10   XYZ
    dof rx ry rz
    limits (-180.0 180.0)
           (-180.0 180.0)
           (-180.0 180.0)
  end
  begin
     id 11 
     name lowerback
     direction -0.0214086 0.993738 0.109665   
     length 0.417614   
     axis 0 -0 0   XYZ
    dof rx ry rz
    limits (-180.0 180.0)
           (-180.0 180.0)
           (-180.0 180.0)
  end
  begin
     id 12 
     name upperback
     direction 8.15962e-005 0.99996 0.00893412   
     length 0.419234   
     axis 0 -0 0   XYZ
    dof rx ry rz
    limits (-180.0 180.0)
           (-180.0 180.0)
           (-180.0 180.0)
  end
  begin
     id 13 
     name thorax
     direction 0.00826031 0.999067 -0.0423848   
     length 0.424697   
     axis 0 -0 0   XYZ
    dof rx ry rz
    limits (-180.0 180.0)
           (-180.0 180.0)
           (-180.0 180.0)
  end
  begin
     id 14 
     name lowerneck
     direction -0.0196262 0.994272 -0.105058   
     length 0.355877   
     axis 0 -0 0   XYZ
    dof rx ry rz
    limits (-180.0 180.0)
           (-180.0 180.0)
           (-180.0 180.0)
  end
  begin
     id 15 
     name upperneck
     direction 0.000117372 0.999091 0.0426261   
     length 0.351054   
     axis 0 -0 0   XYZ
    dof rx ry rz
    limits (-180.0 180.0)
           (-180.0 180.0)
           (-180.0 180.0)
  end
  begin
     id 16
     name head
     direction 0.00157618 0.999651 0.0263619  
     length 0.374844  
     axis 0 -0 0   XYZ
    dof rx ry rz
    limits (-180.0 180.0)
           (-180.0 180.0)
           (-180.0 180.0)
  end
  begin
     id 17 
     name lshoulderjoint
     direction 0.981627 -0.190809 0  
     length 0.701763  
     axis 0 -0 -11   XYZ
    dof rx ry rz
    limits (-180.0 180.0)
           (-180.0 180.0)
           (-180.0 180.0)
  end
  begin
     id 18 
     name lhumerus
     direction 0.48481 -0.87462 -1.80676e-026   
     length 0.994704   
     axis -180 5.14477e-009 -151   XYZ
    dof rx ry rz
    limits (-180.0 180.0)
           (-180.0 180.0)
           (-180.0 180.0)
  end
  begin
     id 19
     name lradius
     direction 0.48481 -0.87462 -3.2569e-026   
     length 0.617638   
     axis -180 5.14477e-009 -151   XYZ
    dof rx ry rz
    limits (-180.0 180.0)
           (-180.0 180.0)
           (-180.0 180.0)
  end
  begin
     id 20
     name lwrist
     direction 0.48481 -0.87462 -6.73202e-026   
     length 0.308819   
     axis -180 5.14477e-009 -151   XYZ
    dof rx ry rz
    limits (-180.0 180.0)
           (-180.0 180.0)
           (-180.0 180.0)
  end
  begin
     id 21 
     name lhand
     direction 0.478366 -0.863761 -0.158376   
     length 0.291656   
     axis -180 5.14477e-009 -151   XYZ
    dof rx ry rz
    limits (-180.0 180.0)
           (-180.0 180.0)
           (-180.0 180.0)
  end
  begin
     id 22 
     name rshoulderjoint
     direction -0.981627 -0.190809 0   
     length 0.66654  
     axis 0 -0 11   XYZ 
    dof rx ry rz
    limits (-180.0 180.0)
           (-180.0 180.0)
           (-180.0 180.0)
  end
  begin
     id 23 
     name rhumerus
     direction -0.48481 -0.87462 1.77576e-026  
     length 1.15089   
     axis 180 5.14477e-009 151   XYZ
    dof rx ry rz
    limits (-180.0 180.0)
           (-180.0 180.0)
           (-180.0 180.0)
  end
  begin
     id 24 
     name rradius
     direction -0.48481 -0.87462 3.79421e-026   
     length 0.613887   
     axis 180 5.14477e-009 151   XYZ
    dof rx ry rz
    limits (-180.0 180.0)
           (-180.0 180.0)
           (-180.0 180.0)
  end
  begin
     id 25 
     name rwrist
     direction -0.48481 -0.87462 5.43623e-026   
     length 0.306944   
     axis 180 5.14477e-009 151   XYZ
    dof rx ry rz
    limits (-180.0 180.0)
           (-180.0 180.0)
           (-180.0 180.0)
  end
  begin
     id 26
     name rhand
     direction -0.479273 -0.864638 -0.150661   
     length 0.306429   
     axis 180 5.14477e-009 151   XYZ
    dof rx ry rz
    limits (-180.0 180.0)
           (-180.0 180.0)
           (-180.0 180.0)
  end
:hierarchy
  begin
    root lhipjoint rhipjoint lowerback 
    lhipjoint lfemur
    lfemur ltibia
    ltibia lfoot
    lfoot ltoes
    rhipjoint rfemur
    rfemur rtibia
    rtibia rfoot
    rfoot rtoes
    lowerback upperback
    upperback thorax
    thorax lowerneck lshoulderjoint rshoulderjoint
    lowerneck upperneck
    upperneck head
    lshoulderjoint lhumerus
    lhumerus lradius
    lradius lwrist
    lwrist lhand
    rshoulderjoint rhumerus
    rhumerus rradius
    rradius rwrist
    rwrist rhand
  end

:FULLY-SPECIFIED
:DEGREES
1131
root -10.3029 3.72 -0.586889 47.3878 -66.8607 43.8369
lowerback -15.9202 -1.88734 -3.76178
upperback -3.48009 -1.99447 -0.394895
thorax 5.3177 -1.08973 1.30174
lowerneck 13.0052 1.82384 -1.83474
upperneck -4.28288 2.06314 -0.525447
head -3.74269 1.07223 0.00260742
rshoulderjoint 1.69361 -4.36718 -32.2208
rhumerus -8.25412 -13.8112 -55.5362
rradius 32.5026 5.45465e-013 -6.91771e-014
rwrist -2.35274e-013 9.30094 -6.63923e-013
rhand 10.3466 -7.9719 30.6513
lshoulderjoint 2.72412 9.7515 26.691
lhumerus 1.96674 -1.37805 51.8623
lradius 21.8708 -1.84472e-013 6.91771e-014
lwrist -4.99569e-013 -9.3114 1.9177e-013
lhand 19.487 8.9248 -19.1586
rfemur -21.5079 8.17746 7.50447
rtibia 21.8323 -2.22639e-014 -5.56597e-015
rfoot -9.49219 14.6641 -14.4075
rtoes -1.25632e-013 -1.55251e-013 3.18055e-015
lfemur -15.581 17.9356 -21.9136
ltibia 6.71792 -3.81667e-014 5.96354e-016
lfoot -5.48148 -5.14635 -30.2042
ltoes -6.55989e-014 -4.23163e-014 2.3059e-014
1132
root -10.2999 3.71912 -0.592432 45.9922 -66.5015 42.3755
lowerback -15.6068 -1.86444 -3.88385
upperback -3.37986 -1.94755 -0.426398
thorax 5.25484 -1.06547 1.35393
lowerneck 12.9979 1.93086 -1.81155
upperneck -4.34054 2.19616 -0.693919
head -3.76003 1.14629 -0.0678648
rshoulderjoint 1.6884 -4.34827 -32.245
rhumerus -8.18411 -13.5259 -55.6046
rradius 32.5026 3.80076e-013 7.7526e-014
rwrist -4.96308e-013 9.28462 -1.94172e-013
rhand 10.3737 -7.97498 30.7113
lshoulderjoint 2.73774 9.79132 26.7053
lhumerus 2.03477 -1.67757 51.8152
lradius 22.0519 -1.52667e-013 1.10524e-013
lwrist -5.99365e-013 -9.24263 2.20734e-013
lhand 19.3046 8.85229 -19.3779
rfemur -22.1865 10.3828 6.4529
rtibia 23.3689 -6.36111e-015 -1.11319e-014
rfoot -9.59593 14.6413 -13.1926
rtoes 1.74931e-014 2.64384e-014 -2.22639e-014
lfemur -15.6823 17.6852 -21.8601
ltibia 7.13384 -1.27222e-014 -1.0138e-014
lfoot -5.53476 -5.29219 -30.5673
ltoes -3.4191e-014 2.19409e-014 5.08889e-014
1133
root -10.295 3.7175 -0.600346 44.5634 -65.8033 40.9116
lowerback -15.3296 -1.9329 -4.10193
upperback -3.36422 -2.01239 -0.426398
thorax 5.13144 -1.09695 1.47149
lowerneck 12.9922 2.04422 -1.79741
upperneck -4.41185 2.33348 -0.890846
head -3.78204 1.22417 -0.146753
rshoulderjoint 1.68432 -4.32971 -32.2807
rhumerus -8.14212 -13.2054 -55.7143
rradius 32.5503 3.28392e-013 5.96354e-014
rwrist 1.3217e-013 9.37967 -2.74817e-013
rhand 10.3282 -8.08551 30.7819
lshoulderjoint 2.74295 9.81434 26.6991
lhumerus 2.09423 -1.9706 51.7341
lradius 22.1878 -1.59028e-014 1.90833e-014
lwrist 0 -9.28559 4.99532e-014
lhand 19.1179 9.028 -19.5462
rfemur -22.9956 12.5164 5.3594
rtibia 24.6267 -4.45278e-014 -4.77083e-015
rfoot -9.65514 14.9398 -11.9514
rtoes 4.05521e-014 -2.57426e-013 -5.725e-014
lfemur -15.9964 17.1565 -21.811
ltibia 7.46486 -6.67916e-014 2.42517e-014
lfoot -5.47686 -5.30192 -30.9486
ltoes 8.70677e-014 -4.17945e-014 1.17681e-013
1134
root -10.2902 3.71523 -0.609232 43.2555 -64.9617 39.5932
lowerback -15.1283 -2.00575 -4.30438
upperback -3.38929 -2.08499 -0.445929
thorax 5.00553 -1.13209 1.55699
lowerneck 12.9619 2.16083 -1.78032
upperneck -4.43342 2.4773 -1.07552
head -3.78137 1.30408 -0.221852
rshoulderjoint 1.66458 -4.26622 -32.338
rhumerus -8.11505 -13.023 -55.8903
rradius 32.5503 1.21656e-013 7.27552e-014
rwrist -1.28954e-013 9.40168 8.86561e-015
rhand 10.401 -8.09053 30.794
lshoulderjoint 2.74675 9.81063 26.7254
lhumerus 2.12774 -1.62978 51.715
lradius 22.3436 8.90555e-014 -2.78299e-014
lwrist -2.12583e-013 -9.08483 -1.51385e-013
lhand 19.2244 8.49247 -19.4597
rfemur -23.8381 14.851 4.13494
rtibia 25.6229 1.90833e-014 1.03368e-014
rfoot -9.64925 14.753 -10.5323
rtoes 7.77248e-014 4.46272e-014 3.18055e-014
lfemur -16.4289 16.5371 -21.7573
ltibia 7.80977 3.81667e-014 1.26725e-014
lfoot -5.48916 -5.34985 -31.292
ltoes 7.99114e-014 -1.71328e-014 5.08889e-014
1135
root -10.2877 3.71383 -0.616256 41.8694 -64.2696 38.1454
lowerback -14.9101 -2.04422 -4.42574
upperback -3.34472 -2.1208 -0.490638
thorax 4.93886 -1.14876 1.57688
lowerneck 12.979 2.30626 -1.72883
upperneck -4.50301 2.65603 -1.34835
head -3.80506 1.40534 -0.336251
rshoulderjoint 1.69779 -4.35399 -32.3271
rhumerus -8.06419 -12.7252 -55.9574
rradius 32.6201 7.39479e-014 -8.11041e-014
rwrist 6.25379e-013 9.37417 -3.18331e-013
rhand 10.4573 -7.93056 30.7178
lshoulderjoint 2.76887 9.87298 26.7517
lhumerus 2.16953 -1.85923 51.6866
lradius 22.4574 1.62208e-013 -1.02573e-013
lwrist 5.38179e-013 -9.26869 -2.23973e-013
lhand 19.0081 8.87831 -19.621
rfemur -24.3932 17.3643 2.80506
rtibia 26.3156 1.27222e-014 3.02153e-014
rfoot -9.8276 14.5189 -9.23209
rtoes 1.25197e-013 -1.40516e-013 3.18055e-014
lfemur -16.6369 16.0032 -21.7042
ltibia 8.16031 6.36111e-015 2.81032e-014
lfoot -5.50661 -5.36372 -31.7499
ltoes 1.75726e-013 -2.78547e-014 1.7334e-013
1136
root -10.2858 3.71254 -0.623574 40.2977 -63.4845 36.5525
lowerback -14.6811 -2.10126 -4.48562
upperback -3.28579 -2.19077 -0.531494
thorax 4.88176 -1.18157 1.55993
lowerneck 12.8578 2.46064 -1.56518
upperneck -4.45901 2.85949 -1.74942
head -3.75641 1.52125 -0.511598
rshoulderjoint 1.74861 -4.49422 -32.2859
rhumerus -8.02615 -12.001 -55.919
rradius 32.691 -4.53229e-014 -1.39149e-014
rwrist -7.05949e-013 9.36408 1.27732e-013
rhand 10.2669 -8.10404 30.7529
lshoulderjoint 2.778 9.92639 26.7211
lhumerus 2.22632 -1.83425 51.5924
lradius 22.5403 -8.90555e-014 -1.145e-013
lwrist -5.60703e-013 -9.24714 -2.33626e-013
lhand 18.9584 8.94329 -19.6839
rfemur -24.7454 19.6486 1.58891
rtibia 26.6908 4.13472e-014 2.70347e-014
rfoot -10.1824 14.6031 -7.92608
rtoes 5.4467e-014 1.13705e-013 1.52667e-013
lfemur -16.8154 15.3577 -21.5646
ltibia 8.54137 4.13472e-014 1.15419e-014
lfoot -5.59056 -5.36146 -32.0626
ltoes 1.6201e-014 -5.00192e-014 -6.91771e-014
1137
root -10.2842 3.71114 -0.630988 38.7284 -62.5468 35.0206
lowerback -14.5369 -2.18279 -4.46659
upperback -3.21734 -2.30017 -0.577252
thorax 4.88023 -1.23393 1.48335
lowerneck 12.8034 2.61686 -1.4755
upperneck -4.49375 3.05622 -2.08001
head -3.7506 1.63278 -0.651576
rshoulderjoint 1.72178 -4.41186 -32.3438
rhumerus -8.0054 -11.7014 -56.1378
rradius 32.7232 1.97393e-013 -1.5545e-013
rwrist 1.32132e-013 9.28059 -4.93079e-013
rhand 10.2835 -8.05903 30.8127
lshoulderjoint 2.80965 10.0502 26.7073
lhumerus 2.33886 -1.45519 51.5929
lradius 22.5979 -6.36111e-015 -2.14687e-014
lwrist 7.08806e-014 -9.18294 -1.61092e-014
lhand 19.0858 8.68827 -19.6682
rfemur -25.0046 21.7618 0.434044
rtibia 26.7633 3.18055e-015 7.95139e-016
rfoot -10.6127 14.8874 -6.60362
rtoes -1.35969e-013 -9.14409e-015 1.27222e-014
lfemur -17.0651 14.5827 -21.3937
ltibia 8.89289 0 1.2424e-014
lfoot -5.69521 -5.50809 -32.3465
ltoes -5.94366e-014 -7.03325e-014 -5.80451e-014
1138
root -10.2827 3.70998 -0.638523 37.07 -61.499 33.4711
lowerback -14.3714 -2.26128 -4.32303
upperback -3.15615 -2.42473 -0.638722
thorax 4.85445 -1.29176 1.31867
lowerneck 12.7525 2.77461 -1.35311
upperneck -4.53323 3.25954 -2.41766
head -3.74568 1.74729 -0.800236
rshoulderjoint 1.80834 -4.66393 -32.2204
rhumerus -7.90588 -11.3632 -56.1701
rradius 32.8195 -6.55989e-015 -6.16232e-014
rwrist -4.47892e-013 9.22692 -2.37641e-014
rhand 10.2804 -7.7774 30.7429
lshoulderjoint 2.8597 10.169 26.798
lhumerus 2.47821 -1.51621 51.5895
lradius 22.6032 -1.68569e-013 -4.53229e-014
lwrist -3.72291e-013 -9.34159 -1.61165e-014
lhand 19.0408 9.14642 -19.7895
rfemur -25.0811 23.6812 -0.585403
rtibia 26.4943 0 5.56597e-015
rfoot -11.2412 14.7943 -5.47057
rtoes -7.35503e-014 -1.06549e-013 4.13472e-014
lfemur -17.3058 13.6984 -21.1422
ltibia 9.19744 -1.27222e-014 3.97569e-015
lfoot -5.91645 -5.81816 -32.6183
ltoes -3.21037e-014 -2.5345e-014 1.51076e-014
1139
root -10.2818 3.70909 -0.646164 35.3728 -60.3974 31.9257
lowerback -14.2258 -2.3475 -4.13929
upperback -3.07938 -2.56461 -0.669344
thorax 4.8556 -1.35704 1.16049
lowerneck 12.7378 2.95351 -1.27863
upperneck -4.59136 3.48065 -2.76408
head -3.75432 1.87219 -0.945724
rshoulderjoint 1.82986 -4.71674 -32.2322
rhumerus -7.88297 -10.7031 -56.2866
rradius 32.8678 1.24439e-013 4.53229e-014
rwrist -2.86713e-013 9.14379 -1.63088e-014
rhand 10.0784 -7.92408 30.9673
lshoulderjoint 2.95152 10.587 26.6757
lhumerus 2.72673 -1.13899 51.6419
lradius 22.6241 -7.95139e-014 7.79236e-014
lwrist -2.14369e-013 -9.37356 1.67627e-013
lhand 19.2427 8.80627 -19.7719
rfemur -24.931 25.4903 -1.45135
rtibia 25.9009 0 -5.56597e-015
rfoot -11.7871 14.9101 -4.59367
rtoes 4.13472e-014 5.725e-014 -1.59028e-014
lfemur -17.553 12.7641 -20.8223
ltibia 9.5816 2.54444e-014 -7.85199e-015
lfoot -6.15282 -5.9267 -32.9271
ltoes -1.49337e-014 1.96393e-014 -4.21423e-014
1140
root -10.2809 3.70806 -0.653966 33.6859 -59.1599 30.4043
lowerback -14.058 -2.45367 -3.93272
upperback -3.03783 -2.7365 -0.708673
thorax 4.80622 -1.43712 0.976774
lowerneck 12.7793 3.13677 -1.17176
upperneck -4.65822 3.71085 -3.11113
head -3.77555 2.00137 -1.09957
rshoulderjoint 1.81785 -4.68195 -32.2476
rhumerus -7.92792 -10.5997 -56.4744
rradius 32.8888 -9.85972e-014 4.92986e-014
rwrist 1.9977e-013 9.21037 1.55466e-013
rhand 10.0626 -7.85812 31.0708
lshoulderjoint 2.99584 10.7166 26.719
lhumerus 2.8228 -0.660482 51.7119
lradius 22.5836 3.30778e-013 -4.85035e-014
lwrist 1.38658e-013 -9.48047 -3.19235e-013
lhand 19.5873 8.82457 -19.6845
rfemur -24.636 27.0904 -2.19675
rtibia 25.0746 5.40694e-014 -9.54166e-015
rfoot -12.3035 15.0051 -3.87012
rtoes -7.95139e-015 2.01965e-013 2.09917e-013
lfemur -17.8967 11.7075 -20.4862
ltibia 10.1137 4.13472e-014 -1.88845e-014
lfoot -6.45128 -5.99865 -33.2989
ltoes -1.22588e-013 -3.82195e-015 -1.69365e-013
1141
root -10.2797 3.7067 -0.662535 32.1972 -57.8141 29.1694
lowerback -13.9786 -2.53045 -3.66795
upperback -3.02393 -2.87642 -0.715208
thorax 4.77185 -1.50121 0.798599
lowerneck 12.8581 3.30771 -1.11292
upperneck -4.78948 3.91344 -3.46136
head -3.82759 2.1192 -1.24694
rshoulderjoint 1.87963 -4.84725 -32.2249
rhumerus -7.92758 -10.1515 -56.5046
rradius 32.9423 5.71705e-013 -1.90833e-014
rwrist 1.38572e-013 9.26676 -6.72368e-013
rhand 9.84607 -7.95522 31.2069
lshoulderjoint 2.99938 10.7164 26.7369
lhumerus 2.94088 -0.413842 51.7523
lradius 22.5088 2.22639e-013 6.20208e-014
lwrist -1.37141e-013 -9.71593 -8.0671e-014
lhand 19.9685 9.23851 -19.5889
rfemur -24.3379 28.45 -2.76712
rtibia 24.0386 -6.67916e-014 -2.22639e-014
rfoot -12.7544 15.2424 -3.40457
rtoes -6.91771e-014 -6.20208e-014 -2.48083e-013
lfemur -18.388 10.5891 -20.1007
ltibia 10.6503 -3.18055e-014 -1.37161e-014
lfoot -6.60596 -5.84639 -33.6885
ltoes -3.43897e-014 3.55079e-014 1.39944e-013
1142
root -10.2783 3.70543 -0.67162 30.8108 -56.3617 28.0509
lowerback -13.9097 -2.6201 -3.42129
upperback -3.02903 -3.03086 -0.723879
thorax 4.72304 -1.57273 0.626215
lowerneck 12.8614 3.49552 -1.09962
upperneck -4.84421 4.14163 -3.72844
head -3.83872 2.2453 -1.35684
rshoulderjoint 1.90249 -4.90578 -32.2273
rhumerus -7.91915 -9.99888 -56.6361
rradius 32.8551 -1.65389e-013 2.70347e-014
rwrist 9.95521e-013 9.17255 6.79085e-014
rhand 9.87444 -7.86535 31.296
lshoulderjoint 3.00962 10.7479 26.7446
lhumerus 3.05833 0.00303352 51.7885
lradius 22.4567 -9.54166e-015 -1.59028e-014
lwrist 1.06015e-012 -9.75662 1.67816e-013
lhand 20.6315 9.22943 -19.3202
rfemur -23.9352 29.5087 -3.14672
rtibia 22.8564 1.59028e-014 3.4191e-014
rfoot -13.1725 15.6982 -3.44898
rtoes 1.4392e-013 -2.08326e-013 3.18055e-014
lfemur -18.9367 9.38796 -19.7131
ltibia 11.1361 0 2.22639e-014
lfoot -6.67868 -5.93909 -34.0202
ltoes 2.14538e-013 3.98874e-014 -1.64594e-013
